<svg width="512" height="512" viewBox="0 0 512 512" fill="none" xmlns="http://www.w3.org/2000/svg" role="img" aria-labelledby="title desc">
  <title id="title">GroundTruth icon</title>
  <desc id="desc">A minimal graph logo with three evidence lines converging into an approved decision mark.</desc>
  <rect x="80" y="80" width="352" height="352" rx="84" stroke="#D2AD73" stroke-width="24" fill="none"/>
  <path d="M158 176H224C248 176 266 190 282 210L324 258" stroke="#C79C57" stroke-width="24" stroke-linecap="round" fill="none"/>
  <path d="M158 256H312" stroke="#8BA483" stroke-width="24" stroke-linecap="round" fill="none"/>
  <path d="M158 336H224C248 336 266 322 282 302L324 258" stroke="#5570A6" stroke-width="24" stroke-linecap="round" fill="none"/>
  <circle cx="160" cy="176" r="26" fill="#C79C57"/>
  <circle cx="160" cy="256" r="26" fill="#8BA483"/>
  <circle cx="160" cy="336" r="26" fill="#5570A6"/>
  <circle cx="336" cy="256" r="52" fill="#C79C57"/>
  <path d="M311 255L330 274L363 237" stroke="white" stroke-width="17" stroke-linecap="round" stroke-linejoin="round"/>
  <g fill="#D2AD73" opacity="0.48">
    <circle cx="365" cy="154" r="7"/><circle cx="400" cy="154" r="7"/>
    <circle cx="365" cy="190" r="7"/><circle cx="400" cy="190" r="7"/>
    <circle cx="365" cy="226" r="7"/><circle cx="400" cy="226" r="7"/>
    <circle cx="365" cy="286" r="7"/><circle cx="400" cy="286" r="7"/>
    <circle cx="365" cy="322" r="7"/><circle cx="400" cy="322" r="7"/>
    <circle cx="365" cy="358" r="7"/><circle cx="400" cy="358" r="7"/>
  </g>
</svg>
